<svg width="49" height="48" viewBox="0 0 49 48" fill="none" xmlns="http://www.w3.org/2000/svg">
<path d="M33 26.9998C33.3978 26.9998 33.7794 26.8418 34.0607 26.5605C34.342 26.2792 34.5 25.8976 34.5 25.4998C34.5 25.102 34.342 24.7205 34.0607 24.4391C33.7794 24.1578 33.3978 23.9998 33 23.9998C32.6022 23.9998 32.2207 24.1578 31.9394 24.4391C31.6581 24.7205 31.5 25.102 31.5 25.4998C31.5 25.8976 31.6581 26.2792 31.9394 26.5605C32.2207 26.8418 32.6022 26.9998 33 26.9998ZM23.34 12.2098C24.603 11.8368 26.037 11.9148 27.32 12.8228H21.96C22.3924 12.5612 22.856 12.3552 23.34 12.2098Z" fill="black"/>
<path fill-rule="evenodd" clip-rule="evenodd" d="M21.96 12.8228H27.32C28.647 13.7578 29.441 15.3188 29.496 16.9288C29.584 19.4468 28.236 21.5788 26.651 23.3128C25.422 24.6558 23.937 25.8748 22.671 26.9148C22.307 27.2128 21.961 27.4958 21.646 27.7638L20.995 28.3138L20.348 27.7578C20 27.4588 19.614 27.1398 19.208 26.8028C17.974 25.7828 16.544 24.5998 15.358 23.3088C13.773 21.5808 12.422 19.4558 12.504 16.9308V16.9288C12.559 15.3188 13.353 13.7568 14.681 12.8218H20.037C20.381 13.0291 20.702 13.2624 21 13.5218C21.2996 13.2617 21.6207 13.0275 21.96 12.8218M21.77 15.5838C22.321 14.9178 23.1 14.3658 23.907 14.1268C24.691 13.8948 25.467 13.9608 26.164 14.4548L26.167 14.4568C26.952 15.0088 27.462 15.9738 27.497 16.9968C27.557 18.7298 26.635 20.3658 25.175 21.9618C24.053 23.1888 22.725 24.2798 21.474 25.3068L21.004 25.6928C20.8033 25.5248 20.5996 25.3558 20.393 25.1858C19.184 24.1858 17.916 23.1358 16.833 21.9558C15.372 20.3648 14.446 18.7358 14.503 16.9958C14.538 15.9728 15.047 15.0088 15.833 14.4558C16.53 13.9658 17.309 13.8988 18.093 14.1308C18.901 14.3688 19.679 14.9178 20.229 15.5838L20.999 16.5158L21.77 15.5838Z" fill="black"/>
<path d="M20.037 12.8229H14.68C15.962 11.9199 17.396 11.8409 18.658 12.2129C19.141 12.3559 19.605 12.5649 20.036 12.8229" fill="black"/>
<path fill-rule="evenodd" clip-rule="evenodd" d="M42.469 29.576C42.811 27.702 40.215 25.366 40.215 25.366C39.336 23.546 39.359 22.006 39.385 20.259C39.392 19.764 39.4 19.252 39.387 18.712C39.3232 16.3494 38.5531 14.06 37.176 12.139C35.6342 10.2722 33.6466 8.82422 31.397 7.92904C28.4979 6.65091 25.3633 5.99381 22.195 6.00004C18.032 6.00004 14.04 7.57404 11.097 10.376C8.154 13.178 6.5 16.978 6.5 20.94C6.5 25.707 9.314 29.384 12.967 32.114V38.563C14.003 40.671 17.913 42.166 20.197 41.985C23.611 41.985 25.047 40.64 25.597 39.843C25.829 39.507 25.904 39.269 25.904 39.269V37.846C25.904 37.846 26.704 38.108 27.904 38.345C31.514 39.057 38.745 39.539 38.745 31.967C38.745 31.967 42.127 31.449 42.469 29.576ZM38.413 26.236L38.584 26.591L38.874 26.851L38.876 26.853L38.883 26.86L38.94 26.913C38.993 26.965 39.074 27.043 39.171 27.145C39.37 27.352 39.624 27.638 39.863 27.96C40.108 28.29 40.297 28.607 40.407 28.879C40.466 29.024 40.487 29.119 40.495 29.173L40.444 29.221C40.299 29.344 40.056 29.487 39.721 29.624C39.3099 29.7891 38.883 29.9118 38.447 29.99L38.437 29.992L36.745 30.25V31.968C36.745 34.031 36.111 35.051 35.443 35.62C34.699 36.253 33.583 36.605 32.195 36.695C30.828 36.785 29.41 36.605 28.297 36.385C27.7345 36.2743 27.1772 36.1382 26.627 35.977L26.542 35.951L26.527 35.946H26.524L23.904 35.086V38.772C23.8126 38.8882 23.7087 38.9938 23.594 39.087C23.182 39.429 22.225 39.987 20.197 39.987H20.117L20.039 39.992C19.325 40.049 18.115 39.83 16.922 39.304C15.948 38.874 15.301 38.38 14.967 37.984V31.114L14.164 30.514C10.771 27.976 8.5 24.822 8.5 20.94C8.5 17.54 9.918 14.26 12.476 11.824C15.037 9.38604 18.532 8.00004 22.195 8.00004H22.197C25.0864 7.99393 27.945 8.59277 30.589 9.75804L30.621 9.77204L30.653 9.78504C32.598 10.565 34.293 11.796 35.586 13.355C36.7089 14.9388 37.3361 16.8203 37.388 18.761C37.397 19.159 37.389 19.578 37.381 20.017C37.347 21.818 37.308 23.945 38.413 26.236Z" fill="black"/>
</svg>
