<svg width="57" height="56" viewBox="0 0 57 56" fill="none" xmlns="http://www.w3.org/2000/svg">
<path fill-rule="evenodd" clip-rule="evenodd" d="M22.046 19.4798C20.6101 18.9191 19.0294 18.848 17.549 19.2776C16.0686 19.7071 14.7714 20.6133 13.8587 21.8555C12.946 23.0976 12.4688 24.6063 12.5012 26.1474C12.5336 27.6885 13.0738 29.1758 14.0379 30.3785C15.002 31.5812 16.3362 32.4321 17.8333 32.799C19.3304 33.166 20.9068 33.0285 22.3178 32.408C23.7288 31.7874 24.8955 30.7185 25.6369 29.367C26.3782 28.0156 26.6528 26.4573 26.418 24.9338C26.398 24.804 26.4038 24.6715 26.4351 24.544C26.4663 24.4164 26.5223 24.2962 26.6 24.1903C26.6777 24.0844 26.7755 23.9948 26.8878 23.9267C27.0001 23.8586 27.1247 23.8133 27.2545 23.7933C27.3843 23.7734 27.5168 23.7792 27.6443 23.8104C27.7719 23.8416 27.8921 23.8977 27.998 23.9754C28.1039 24.053 28.1934 24.1508 28.2616 24.2631C28.3297 24.3754 28.375 24.5 28.395 24.6298C28.6966 26.5885 28.3433 28.5919 27.3899 30.3293C26.4365 32.0666 24.9363 33.4407 23.1222 34.2383C21.308 35.036 19.2814 35.2125 17.3566 34.7406C15.4319 34.2687 13.7167 33.1747 12.4773 31.6284C11.2378 30.082 10.5434 28.1699 10.5018 26.1885C10.4602 24.2072 11.0737 22.2676 12.2471 20.6706C13.4205 19.0736 15.0882 17.9085 16.9914 17.3561C18.8946 16.8038 20.9269 16.8951 22.773 17.6158C22.897 17.6623 23.0105 17.733 23.107 17.8237C23.2034 17.9145 23.2809 18.0235 23.3349 18.1444C23.3889 18.2653 23.4184 18.3958 23.4215 18.5282C23.4247 18.6606 23.4015 18.7923 23.3534 18.9157C23.3053 19.039 23.2331 19.1516 23.1411 19.2469C23.0491 19.3421 22.9391 19.4182 22.8174 19.4706C22.6958 19.5229 22.565 19.5507 22.4325 19.5521C22.3001 19.5535 22.1687 19.5296 22.046 19.4798Z" fill="black"/>
<path fill-rule="evenodd" clip-rule="evenodd" d="M18.5 43V35C18.5 34.7348 18.6054 34.4804 18.7929 34.2929C18.9804 34.1054 19.2348 34 19.5 34C19.7652 34 20.0196 34.1054 20.2071 34.2929C20.3946 34.4804 20.5 34.7348 20.5 35V43C20.5 43.2652 20.3946 43.5196 20.2071 43.7071C20.0196 43.8946 19.7652 44 19.5 44C19.2348 44 18.9804 43.8946 18.7929 43.7071C18.6054 43.5196 18.5 43.2652 18.5 43Z" fill="black"/>
<path fill-rule="evenodd" clip-rule="evenodd" d="M15.5 38C15.5 37.7348 15.6054 37.4804 15.7929 37.2929C15.9804 37.1054 16.2348 37 16.5 37H22.5C22.7652 37 23.0196 37.1054 23.2071 37.2929C23.3946 37.4804 23.5 37.7348 23.5 38C23.5 38.2652 23.3946 38.5196 23.2071 38.7071C23.0196 38.8947 22.7652 39 22.5 39H16.5C16.2348 39 15.9804 38.8947 15.7929 38.7071C15.6054 38.5196 15.5 38.2652 15.5 38ZM33.402 19.263C32.2938 18.9502 31.1255 18.9155 30.0007 19.1622C28.8759 19.4089 27.8293 19.9292 26.9538 20.6771C26.0782 21.425 25.4006 22.3774 24.9811 23.4498C24.5617 24.5222 24.4132 25.6815 24.549 26.825C24.5652 26.9558 24.5555 27.0884 24.5202 27.2154C24.485 27.3424 24.4251 27.4611 24.3438 27.5649C24.2626 27.6686 24.1616 27.7552 24.0468 27.8198C23.9319 27.8844 23.8055 27.9256 23.6746 27.9412C23.5438 27.9567 23.4112 27.9463 23.2844 27.9104C23.1576 27.8745 23.0391 27.814 22.9358 27.7322C22.8325 27.6504 22.7464 27.549 22.6824 27.4338C22.6185 27.3186 22.5779 27.1919 22.563 27.061C22.3294 25.093 22.7518 23.103 23.7648 21.3997C24.7778 19.6963 26.3247 18.375 28.1654 17.6406C30.0061 16.9063 32.0378 16.8001 33.945 17.3384C35.8523 17.8768 37.5286 19.0296 38.7137 20.618C39.8988 22.2064 40.5265 24.1415 40.4994 26.1231C40.4723 28.1047 39.7919 30.022 38.5638 31.5773C37.3356 33.1327 35.6285 34.2392 33.7072 34.7252C31.7859 35.2112 29.7579 35.0494 27.938 34.265C27.8174 34.2131 27.7082 34.1379 27.6166 34.0437C27.525 33.9496 27.4529 33.8383 27.4044 33.7163C27.3063 33.4699 27.3101 33.1946 27.415 32.951C27.5199 32.7074 27.7173 32.5155 27.9637 32.4174C28.2101 32.3193 28.4854 32.3231 28.729 32.428C29.6088 32.8071 30.557 33.0015 31.515 32.9993C32.473 32.9971 33.4204 32.7983 34.2984 32.4151C35.1764 32.032 35.9665 31.4727 36.6196 30.7719C37.2728 30.0711 37.7752 29.2437 38.0956 28.3409C38.4161 27.4381 38.5478 26.4791 38.4827 25.5234C38.4175 24.5676 38.1569 23.6354 37.7169 22.7844C37.2769 21.9334 36.6669 21.1818 35.9247 20.5761C35.1825 19.9704 34.3239 19.5235 33.402 19.263Z" fill="black"/>
<path fill-rule="evenodd" clip-rule="evenodd" d="M37.293 21.2066C37.1055 21.0191 37.0002 20.7648 37.0002 20.4996C37.0002 20.2344 37.1055 19.9801 37.293 19.7926L44.793 12.2926C44.8852 12.1971 44.9956 12.1209 45.1176 12.0685C45.2396 12.0161 45.3708 11.9885 45.5036 11.9873C45.6363 11.9862 45.768 12.0115 45.8909 12.0618C46.0138 12.1121 46.1255 12.1863 46.2194 12.2802C46.3133 12.3741 46.3875 12.4857 46.4378 12.6086C46.4881 12.7315 46.5134 12.8632 46.5122 12.996C46.5111 13.1288 46.4835 13.26 46.4311 13.382C46.3787 13.504 46.3025 13.6143 46.207 13.7066L38.707 21.2066C38.5194 21.3941 38.2651 21.4994 38 21.4994C37.7348 21.4994 37.4805 21.3941 37.293 21.2066Z" fill="black"/>
<path fill-rule="evenodd" clip-rule="evenodd" d="M45.424 18.9998C45.2926 18.9981 45.1629 18.9706 45.0423 18.9187C44.9216 18.8669 44.8123 18.7918 44.7206 18.6978C44.629 18.6037 44.5568 18.4925 44.5081 18.3705C44.4594 18.2485 44.4352 18.1181 44.437 17.9868L44.487 14.0128L40.513 14.0628C40.2477 14.0663 39.992 13.9642 39.802 13.7791C39.6121 13.594 39.5034 13.341 39.5 13.0758C39.4965 12.8106 39.5986 12.5549 39.7837 12.3649C39.9688 12.1749 40.2217 12.0663 40.487 12.0628L46.513 11.9868L46.437 18.0128C46.4353 18.1441 46.4077 18.2738 46.3559 18.3945C46.3041 18.5152 46.229 18.6245 46.1349 18.7161C46.0408 18.8078 45.9296 18.88 45.8076 18.9287C45.6857 18.9774 45.5553 19.0015 45.424 18.9998Z" fill="black"/>
</svg>
