<svg width="57" height="56" viewBox="0 0 57 56" fill="none" xmlns="http://www.w3.org/2000/svg">
<path d="M9.60857 21.5954C10.7194 11.4914 19.6097 10.5177 25.6611 14.0251C27.564 15.1291 29.4326 15.1291 31.3389 14.0251C37.3903 10.5177 46.2806 11.4914 47.3914 21.5954C48.5057 31.7303 42.7971 42.4548 39.7389 46.5623C39.0429 47.4983 37.9217 47.944 36.756 47.944C35.8245 47.944 34.9156 47.6565 34.1535 47.1208C33.3914 46.5851 32.8132 45.8273 32.4977 44.9508L31.4177 41.9543C31.2007 41.3546 30.8042 40.8363 30.2821 40.47C29.76 40.1037 29.1378 39.9072 28.5 39.9072C27.8622 39.9072 27.24 40.1037 26.7179 40.47C26.1958 40.8363 25.7993 41.3546 25.5823 41.9543L24.5023 44.9508C24.1868 45.8273 23.6086 46.5851 22.8465 47.1208C22.0844 47.6565 21.1755 47.944 20.244 47.944C19.0783 47.944 17.9537 47.4983 17.2611 46.5623C14.2029 42.4548 8.49429 31.7303 9.60857 21.5954Z" stroke="black" stroke-width="2" stroke-linecap="round" stroke-linejoin="round"/>
<path d="M32.9263 22.103C29.292 23.4265 27.3377 23.399 24.0737 22.103" stroke="black" stroke-width="2" stroke-linecap="round" stroke-linejoin="round"/>
</svg>
