<svg width="57" height="56" viewBox="0 0 57 56" fill="none" xmlns="http://www.w3.org/2000/svg">
<path d="M45.5 8.3335H11.5C10.7044 8.3335 9.94129 8.64957 9.37868 9.21218C8.81607 9.77478 8.5 10.5378 8.5 11.3335V45.3335C8.5 46.1291 8.81607 46.8922 9.37868 47.4548C9.94129 48.0174 10.7044 48.3335 11.5 48.3335H45.5C46.2956 48.3335 47.0587 48.0174 47.6213 47.4548C48.1839 46.8922 48.5 46.1291 48.5 45.3335V11.3335C48.5 10.5378 48.1839 9.77478 47.6213 9.21218C47.0587 8.64957 46.2956 8.3335 45.5 8.3335Z" stroke="black" stroke-width="2" stroke-linejoin="round"/>
<path d="M16.5 23.3877C19.8247 19.3877 23.8247 17.3877 28.5 17.3877C33.1747 17.3877 37.1747 19.3877 40.5 23.3877" stroke="black" stroke-width="2" stroke-linecap="round"/>
<path d="M28.5 35.3335C29.2956 35.3335 30.0587 35.0174 30.6213 34.4548C31.1839 33.8922 31.5 33.1291 31.5 32.3335C31.5 31.5378 31.1839 30.7748 30.6213 30.2122C30.0587 29.6496 29.2956 29.3335 28.5 29.3335C27.7044 29.3335 26.9413 29.6496 26.3787 30.2122C25.8161 30.7748 25.5 31.5378 25.5 32.3335C25.5 33.1291 25.8161 33.8922 26.3787 34.4548C26.9413 35.0174 27.7044 35.3335 28.5 35.3335Z" fill="black"/>
<path d="M23.5 25.3335L28.508 32.3335" stroke="black" stroke-width="2" stroke-linecap="round"/>
</svg>
