<svg width="12" height="16" viewBox="0 0 12 16" fill="none" xmlns="http://www.w3.org/2000/svg">
<path d="M5.12502 10.3815L9.25669 6.2498L8.66169 5.65563L5.12502 9.1923L3.34335 7.4098L2.74835 8.0048L5.12502 10.3815ZM6.00002 15.4665C4.32613 14.9698 2.9353 13.9559 1.82752 12.4248C0.719743 10.8937 0.166132 9.16869 0.166687 7.2498V2.74313L6.00002 0.563965L11.8334 2.74313V7.2498C11.8334 9.16869 11.2797 10.8937 10.1725 12.4248C9.0653 13.9559 7.67447 14.9706 6.00002 15.469M6.00002 14.584C7.44447 14.1256 8.63891 13.209 9.58335 11.834C10.5278 10.459 11 8.93119 11 7.25063V3.3123L6.00002 1.45396L1.00002 3.3123V7.2498C1.00002 8.93035 1.47224 10.4581 2.41669 11.8331C3.36113 13.2081 4.55558 14.1256 6.00002 14.584Z" fill="black"/>
</svg>
