<svg width="57" height="56" viewBox="0 0 57 56" fill="none" xmlns="http://www.w3.org/2000/svg">
<path d="M14.916 25.3881C14.7293 25.1934 14.636 24.9621 14.636 24.6941C14.636 24.4261 14.7293 24.1821 14.916 23.9621L19.86 19.0161L17.096 16.2881L15.804 17.5801C15.584 17.8014 15.34 17.9121 15.072 17.9121C14.804 17.9121 14.5727 17.8014 14.378 17.5801C14.1647 17.3934 14.058 17.1641 14.058 16.8921C14.058 16.6201 14.1647 16.3781 14.378 16.1661L18.378 12.2041C18.5727 11.9827 18.804 11.8721 19.072 11.8721C19.34 11.8721 19.584 11.9827 19.804 12.2041C19.9907 12.3907 20.084 12.6201 20.084 12.8921C20.084 13.1641 19.9907 13.3934 19.804 13.5801L18.474 14.9121L21.238 17.6381L26.184 12.6921C26.4053 12.4721 26.65 12.3621 26.918 12.3621C27.186 12.3621 27.4173 12.4721 27.612 12.6921C27.832 12.8867 27.942 13.1181 27.942 13.3861C27.942 13.6541 27.832 13.8981 27.612 14.1181L26.492 15.2261L40.088 28.8221C40.7267 29.4621 41.046 30.2314 41.046 31.1301C41.046 32.0287 40.7267 32.7841 40.088 33.3961L38.574 34.9241L45.746 42.0841C45.926 42.2641 45.9713 42.4574 45.882 42.6641C45.7913 42.8734 45.628 42.9781 45.392 42.9781H44.534C44.2887 42.9781 44.0573 42.9327 43.84 42.8421C43.624 42.7527 43.4213 42.6127 43.232 42.4221L37.146 36.3381L35.632 37.8661C35.0187 38.4794 34.2627 38.7861 33.364 38.7861C32.4653 38.7861 31.6967 38.4794 31.058 37.8661L17.46 24.2701L16.34 25.3901C16.12 25.6021 15.8827 25.7081 15.628 25.7081C15.372 25.7081 15.134 25.6014 14.914 25.3881M18.836 22.8921L32.432 36.4881C32.6893 36.7187 32.9847 36.8341 33.318 36.8341C33.6513 36.8341 33.946 36.7187 34.202 36.4881L38.66 31.9821C38.916 31.7501 39.044 31.4614 39.044 31.1161C39.044 30.7694 38.916 30.4807 38.66 30.2501L35.814 27.3541L32.744 30.4241C32.524 30.6374 32.286 30.7454 32.03 30.7481C31.774 30.7507 31.5533 30.6587 31.368 30.4721C31.1467 30.2774 31.036 30.0461 31.036 29.7781C31.036 29.5101 31.1467 29.2661 31.368 29.0461L34.436 25.9761L30.244 21.8241L27.176 24.8921C26.98 25.0787 26.748 25.1721 26.48 25.1721C26.212 25.1721 25.968 25.0787 25.748 24.8921C25.5613 24.6721 25.468 24.4281 25.468 24.1601C25.468 23.8921 25.5613 23.6607 25.748 23.4661L28.818 20.3961L25.076 16.6541L18.836 22.8921ZM18.836 22.8921L19.086 22.6421L19.722 22.0081L24.232 17.5001L24.828 16.9041L25.076 16.6541L18.836 22.8921Z" fill="black"/>
</svg>
