<svg width="128" height="22" viewBox="0 0 128 22" fill="none" xmlns="http://www.w3.org/2000/svg">
<path fill-rule="evenodd" clip-rule="evenodd" d="M6.315 18.6566C6.315 19.5899 6.22203 20.0583 7.24903 20.152C7.52939 20.2443 7.80901 20.2443 7.80901 20.5253C7.80901 20.805 7.62235 20.8987 7.43569 20.8987C6.59535 20.8987 5.75502 20.805 4.91395 20.805C4.07434 20.805 3.32625 20.8987 2.57961 20.8987C2.29925 20.8987 2.11259 20.805 2.11259 20.5253C2.11259 20.338 2.39294 20.2443 2.57961 20.152C3.7003 19.9646 3.60733 19.7773 3.60733 18.6566V11.7465C3.60733 11.2795 3.60733 11.2795 3.14031 11.2795C2.02035 11.2795 1.6463 11.7465 0.992624 12.5875C0.899657 12.7735 0.619303 13.1475 0.338949 13.1475C0.152288 13.1475 0.0585938 13.0538 0.0585938 12.8664C0.0585938 12.6791 0.0585942 12.5868 0.152288 12.4931L0.619303 10.5321C0.71227 10.3454 0.805963 9.97211 1.08632 9.97211C1.27298 9.97211 1.36667 10.0651 1.36667 10.2525C1.55333 10.7195 1.6463 10.6258 2.11332 10.6258H7.9964C8.46342 10.6258 8.93043 10.6258 9.21006 10.1588C9.30303 10.0651 9.39672 9.87842 9.58338 9.87842C9.9567 9.87842 9.9567 10.1588 9.86374 10.4384L9.67707 12.5868C9.67707 12.8664 9.67707 13.239 9.30375 13.239C9.0234 13.239 8.83674 12.9594 8.83674 12.772C8.36972 11.5591 8.08937 11.278 6.78202 11.278C6.315 11.278 6.315 11.3717 6.315 11.745V18.6566ZM18.0804 15.0149C18.6404 15.0149 18.6404 15.0149 18.6404 14.4549V12.8672C18.6404 11.8402 18.7341 11.4669 17.7064 11.2795C17.426 11.1858 17.1464 11.1858 17.1464 10.9061C17.1464 10.6258 17.3331 10.6258 17.5197 10.6258C18.3601 10.6258 19.2004 10.7188 20.0415 10.7188C20.8818 10.7188 21.6292 10.6258 22.3758 10.6258C22.6562 10.6258 22.8428 10.6258 22.8428 10.9061C22.8428 11.1858 22.5625 11.1858 22.3758 11.2795C21.2551 11.4669 21.3488 11.7465 21.3488 12.8672V18.6566C21.3488 19.5899 21.2551 20.0583 22.2821 20.152C22.4695 20.2443 22.8428 20.2443 22.8428 20.5253C22.8428 20.805 22.6562 20.8987 22.3758 20.8987C21.5355 20.8987 20.6951 20.805 19.8548 20.805C19.1082 20.805 18.3608 20.8987 17.5205 20.8987C17.3338 20.8987 17.1471 20.805 17.1471 20.5253C17.1471 20.338 17.4275 20.2443 17.6142 20.152C18.6412 19.9646 18.6412 19.7773 18.6412 18.6566V16.1355C18.6412 15.7622 18.5475 15.7622 18.0812 15.7622H15.1868C14.5332 15.7622 14.5332 15.6685 14.5332 16.4159V18.6558C14.5332 19.5891 14.5332 20.0576 15.5602 20.1513C15.7468 20.2435 16.0272 20.2435 16.0272 20.5246C16.0272 20.8042 15.8405 20.8979 15.6539 20.8979C14.8135 20.8979 13.9732 20.8043 13.1328 20.8043C12.3855 20.8043 11.5451 20.8979 10.7985 20.8979C10.6118 20.8979 10.4252 20.8042 10.4252 20.5246C10.4252 20.3372 10.6118 20.2435 10.8922 20.1513C11.9192 19.9639 11.9192 19.7765 11.9192 18.6558V12.8664C11.9192 11.8394 12.0129 11.4661 10.8922 11.2787C10.7055 11.185 10.4252 11.185 10.4252 10.9054C10.4252 10.6251 10.6118 10.6251 10.7985 10.6251C11.6388 10.6251 12.4792 10.718 13.3195 10.718C14.0661 10.718 14.9072 10.6251 15.6539 10.6251C15.8405 10.6251 16.0272 10.6251 16.0272 10.9054C16.0272 11.185 15.8405 11.185 15.5602 11.2787C14.5332 11.4661 14.5332 11.7458 14.5332 12.8664V14.4542C14.5332 15.0141 14.6261 15.0141 15.1868 15.0141L18.0804 15.0149ZM27.6982 14.3612C27.6982 14.8282 27.6982 15.1086 28.2582 15.1086C28.6322 15.1086 29.2852 15.1086 29.6592 15.0149C30.0325 14.9212 30.3129 14.5478 30.4059 14.1752C30.4996 13.9879 30.5925 13.6153 30.8729 13.6153C31.1532 13.6153 31.2469 13.8012 31.2469 14.0823C31.1532 14.4556 31.1532 15.0156 31.1532 15.4826C31.1532 15.9496 31.1532 16.4174 31.2469 16.8844C31.2469 17.0703 31.1532 17.3514 30.8729 17.3514C30.0326 17.3514 30.6862 15.7637 28.9119 15.7637H28.1652C27.6982 15.7637 27.6982 16.0433 27.6982 16.5096V18.3777C27.6982 18.8447 27.6982 19.4047 27.9786 19.778C28.2589 20.1528 28.8189 20.245 29.2859 20.245C30.4066 20.245 31.3406 19.778 31.9006 18.751C31.9936 18.4714 32.1802 18.191 32.4606 18.191C32.6473 18.191 32.8346 18.2847 32.8346 18.5643C32.8346 18.658 32.648 19.1243 32.648 19.3117L32.4613 20.6198C32.4613 20.8057 32.4613 20.8994 32.181 20.8994C30.9673 20.8994 29.7536 20.8057 28.633 20.8057C27.0453 20.8057 25.4575 20.8994 23.8706 20.8994C23.6839 20.8994 23.4972 20.8057 23.4972 20.6198C23.4972 20.3387 23.7776 20.245 23.9643 20.1528C25.0849 19.9654 24.9913 19.6843 24.9913 18.6573V12.8679C24.9913 11.9346 25.0849 11.4676 23.9643 11.2802C23.7776 11.1865 23.4972 11.1865 23.4972 10.9998C23.4972 10.7195 23.6839 10.6265 23.8706 10.6265C24.8976 10.6265 25.8316 10.7195 26.7649 10.7195C28.4456 10.7195 30.2199 10.6265 31.9006 10.6265C32.2739 10.6265 32.1802 10.9069 32.1802 11.1865V12.4946C32.1802 12.7742 32.2739 13.0546 31.9006 13.0546C31.6203 13.0546 31.4336 12.7735 31.3406 12.5875C31.154 12.3065 30.8736 11.9339 30.5933 11.7465C30.2199 11.4669 29.7529 11.3732 29.2859 11.3732C29.0055 11.3732 28.1659 11.3732 27.8856 11.5605C27.6989 11.6528 27.6989 12.1205 27.6989 12.3065L27.6982 14.3612Z" fill="#B5C7C8"/>
<path fill-rule="evenodd" clip-rule="evenodd" d="M65.9833 18.0029C65.9833 19.3109 65.8896 19.7772 67.1962 19.9646C67.4773 20.0583 67.9436 20.152 67.9436 20.5246C67.9436 20.8042 67.664 20.8979 67.3836 20.8979C66.2629 20.8979 65.2359 20.8042 64.1152 20.8042C63.0875 20.8042 62.0605 20.8979 61.0335 20.8979C60.7532 20.8979 60.5665 20.8042 60.5665 20.5246C60.5665 20.1513 60.8469 20.0576 61.1265 19.9646C62.5275 19.7772 62.4338 19.4046 62.4338 18.0029V10.4398C62.4338 9.22617 62.6205 8.66546 61.2202 8.38511C60.9398 8.38511 60.5665 8.29214 60.5665 8.01179C60.5665 7.63774 60.7532 7.54477 61.0335 7.54477C62.1535 7.54477 63.2742 7.63774 64.3019 7.63774C65.3296 7.63774 66.3566 7.54477 67.3836 7.54477C67.6647 7.54477 67.9436 7.63774 67.9436 8.01179C67.9436 8.29214 67.5703 8.38511 67.2899 8.38511C65.8896 8.66474 65.9833 9.03878 65.9833 10.4398V18.0029ZM81.3904 18.5628C81.7638 19.4039 81.8575 19.7772 82.7908 19.9646C83.0718 20.0583 83.2578 20.152 83.2578 20.4316C83.2578 20.805 82.8845 20.8986 82.6041 20.8986C82.0448 20.8986 81.3912 20.805 80.8312 20.805C80.2712 20.805 79.7105 20.8986 79.0568 20.8986C78.5898 20.8986 78.4968 20.619 78.3109 20.1527L76.3491 16.3244C76.1632 15.8559 75.7892 15.0163 75.4158 14.7367C75.2285 14.5493 74.9488 14.4556 74.6685 14.4556C74.2951 14.4556 74.3888 14.7367 74.3888 15.2029V18.0029C74.3888 19.3109 74.2951 19.7772 75.6955 19.9646C75.8829 20.0583 76.3491 20.152 76.3491 20.5246C76.3491 20.8042 76.0695 20.8979 75.7892 20.8979C74.7622 20.8979 73.6415 20.8042 72.5208 20.8042C71.4938 20.8042 70.4668 20.8979 69.4398 20.8979C69.1602 20.8979 68.9728 20.8042 68.9728 20.5246C68.9728 20.1513 69.2539 20.0576 69.5328 19.9646C70.9331 19.7772 70.9331 19.4046 70.9331 18.0029V10.4398C70.9331 9.22617 71.0268 8.57249 69.7201 8.38511C69.4391 8.38511 69.0665 8.38511 69.0665 8.01179C69.0665 7.63774 69.2539 7.54477 69.6265 7.54477C70.5598 7.54477 71.5868 7.63774 72.5201 7.63774C74.2007 7.63774 75.7884 7.54477 77.4691 7.54477C78.3102 7.54477 79.3372 7.63774 80.0838 8.19772C80.9249 8.85139 81.3919 9.78543 81.3919 10.8124C81.3919 12.8664 79.5238 13.7997 77.7502 13.9871C78.9631 14.0808 79.4309 14.8267 79.8979 15.8537L81.3904 18.5628ZM74.3874 12.6798C74.3874 13.2397 74.2937 13.6145 74.8544 13.6145C75.5081 13.6145 76.1625 13.5208 76.7225 13.1475C77.3747 12.679 77.6558 11.8394 77.6558 11.0928C77.6558 9.69173 76.8147 8.38438 75.3207 8.38438C75.0411 8.38438 74.4811 8.47735 74.3874 8.8514V12.6798ZM96.0502 18.5628C96.425 19.4039 96.5172 19.7772 97.452 19.9646C97.7316 20.0583 97.919 20.152 97.919 20.4316C97.919 20.805 97.5457 20.8986 97.2653 20.8986C96.7054 20.8986 96.1446 20.805 95.491 20.805C94.931 20.805 94.3703 20.8986 93.7181 20.8986C93.251 20.8986 93.251 20.619 93.0644 20.1527L91.1041 16.3244C90.823 15.8559 90.4504 15.0163 90.0771 14.7367C89.8897 14.5493 89.6086 14.4556 89.3297 14.4556C88.9564 14.4556 89.0486 14.7367 89.0486 15.2029V18.0029C89.0486 19.3109 88.9564 19.7772 90.3567 19.9646C90.6363 20.0583 91.0104 20.152 91.0104 20.5246C91.0104 20.8042 90.7293 20.8979 90.4504 20.8979C89.4234 20.8979 88.3027 20.8042 87.182 20.8042C86.155 20.8042 85.2217 20.8979 84.1947 20.8979C83.8199 20.8979 83.6347 20.8042 83.6347 20.5246C83.6347 20.1513 84.0081 20.0576 84.1947 19.9646C85.595 19.7772 85.595 19.4046 85.595 18.0029V10.4398C85.595 9.22617 85.6887 8.57249 84.3806 8.38511C84.101 8.38511 83.727 8.38511 83.727 8.01179C83.727 7.63774 83.9144 7.54477 84.287 7.54477C85.2217 7.54477 86.2487 7.63774 87.182 7.63774C88.8627 7.63774 90.4504 7.54477 92.1311 7.54477C93.0644 7.54477 93.9977 7.63774 94.7458 8.19772C95.5854 8.85139 96.0524 9.78543 96.0524 10.8124C96.0524 12.8664 94.1858 13.7997 92.4107 13.9871C93.6251 14.0808 94.0914 14.8267 94.6521 15.8537L96.0502 18.5628ZM89.0464 12.6798C89.0464 13.2397 88.9542 13.6145 89.5149 13.6145C90.1671 13.6145 90.8215 13.5208 91.3815 13.1475C92.0352 12.679 92.3148 11.8394 92.3148 11.0928C92.3148 9.69173 91.4752 8.38438 89.9812 8.38438C89.7001 8.38438 89.1401 8.47735 89.0464 8.8514V12.6798ZM100.16 19.4039C98.6657 18.1895 97.8246 16.1355 97.8246 14.2675C97.8212 13.339 98.0103 12.42 98.38 11.5683C98.7496 10.7166 99.2918 9.95078 99.9723 9.31914C101.373 7.91809 103.147 7.26442 105.201 7.26442C109.217 7.26442 113.046 9.78543 113.046 14.1752C113.046 18.2832 109.496 21.0853 105.576 21.0853C103.801 21.0853 101.654 20.5246 100.16 19.4039ZM109.403 14.7352C109.403 12.2127 108.19 8.01179 105.016 8.01179C102.307 8.01179 101.466 11.4668 101.466 13.6145C101.466 15.0148 101.747 16.5081 102.401 17.8162C103.147 19.1228 104.268 20.3372 105.855 20.3372C108.563 20.3372 109.403 16.8836 109.403 14.7352ZM125.745 18.5628C126.212 19.4039 126.305 19.7772 127.239 19.9646C127.519 20.0583 127.706 20.152 127.706 20.4316C127.706 20.805 127.333 20.8986 127.053 20.8986C126.399 20.8986 125.84 20.805 125.28 20.805C124.72 20.805 124.065 20.8986 123.505 20.8986C123.038 20.8986 122.945 20.619 122.758 20.1527L120.798 16.3244C120.61 15.8559 120.144 15.0163 119.864 14.7367C119.677 14.5493 119.397 14.4556 119.117 14.4556C118.744 14.4556 118.837 14.7367 118.837 15.2029V18.0029C118.837 19.3109 118.744 19.7772 120.05 19.9646C120.331 20.0583 120.798 20.152 120.798 20.5246C120.798 20.8042 120.518 20.8979 120.238 20.8979C119.117 20.8979 118.09 20.8042 116.969 20.8042C115.942 20.8042 114.915 20.8979 113.888 20.8979C113.607 20.8979 113.421 20.8042 113.421 20.5246C113.421 20.1513 113.701 20.0576 113.981 19.9646C115.382 19.7772 115.288 19.4046 115.288 18.0029V10.4398C115.288 9.22617 115.475 8.57249 114.167 8.38511C113.888 8.38511 113.515 8.38511 113.515 8.01179C113.515 7.63774 113.701 7.54477 113.982 7.54477C115.009 7.54477 115.942 7.63774 116.969 7.63774C118.65 7.63774 120.238 7.54477 121.825 7.54477C122.759 7.54477 123.786 7.63774 124.534 8.19772C125.373 8.85139 125.748 9.78543 125.748 10.8124C125.748 12.8664 123.974 13.7997 122.199 13.9871C123.413 14.0808 123.879 14.8267 124.346 15.8537L125.745 18.5628ZM118.835 12.6798C118.835 13.2397 118.742 13.6145 119.302 13.6145C119.956 13.6145 120.609 13.5208 121.169 13.1475C121.823 12.679 122.104 11.8394 122.104 11.0928C122.104 9.69173 121.263 8.38438 119.769 8.38438C119.489 8.38438 118.929 8.47735 118.835 8.8514C118.742 9.03806 118.835 9.59877 118.835 9.78543V12.6798ZM58.3266 0.915039H54.0319C53.3782 0.915039 52.9112 1.00801 52.4442 2.1287L47.3085 14.4541C46.9352 13.6145 41.7995 1.75538 41.7995 1.75538C41.4261 0.915043 41.1465 0.915039 40.6795 0.915039H35.6375C34.7971 0.915039 34.7034 1.28836 34.7034 1.47502C34.7034 1.94204 34.9838 1.94204 35.3571 2.03574H35.9171C36.5708 2.1287 37.2244 2.1287 37.2244 3.43605C37.2244 6.7974 36.7574 13.6145 36.5708 16.2292L36.4771 17.2562C36.4771 19.4039 36.0101 19.6835 34.9831 19.8709H34.609C34.2357 19.9646 33.7687 19.9646 33.7687 20.4309C33.7687 20.5246 33.7687 20.7105 33.8616 20.8042C33.9553 20.8979 34.142 20.9916 34.4216 20.9916L35.3557 20.8979H39.3714L40.1181 20.9916C40.8647 20.9916 40.8647 20.6183 40.8647 20.4316C40.8647 19.9646 40.2117 19.8717 40.0244 19.8717C38.5303 19.778 38.25 19.6843 38.25 14.7367C38.25 11.6542 38.4367 8.1999 38.717 5.11818C39.184 6.23814 45.0664 19.5906 45.0664 19.5906C45.253 20.059 45.5334 20.5253 46.0004 20.5253C46.5604 20.5253 46.7471 20.0583 47.0274 19.3109C47.0274 19.3109 51.8828 7.73216 53.1901 4.65044C53.1901 6.05076 53.3768 17.5358 53.3768 17.5358V18.0958C53.3768 19.2165 53.2831 19.7765 52.1631 19.8702H52.0702C51.6961 19.9639 51.0424 19.9639 51.0424 20.5239C51.0424 20.6176 51.0424 20.8035 51.1361 20.8972C51.3228 20.9909 51.5094 20.9909 51.6961 20.9909L52.9098 20.8972H55.5245C56.8318 20.8972 58.5125 20.8972 58.9795 20.9909C59.6332 21.0846 59.9135 20.8972 60.0065 20.6176C60.0065 20.4302 60.0065 20.3365 59.9135 20.2428C59.7269 20.0569 59.4465 19.9632 58.8858 19.8695C57.9525 19.8695 57.5792 19.4962 57.4855 17.4422L57.0185 4.089C56.9255 2.5013 57.0185 2.03428 58.4195 1.94059H58.6062C58.8858 1.94059 59.3528 1.84762 59.3528 1.47357C59.3528 1.38061 59.3528 1.19394 59.1662 1.10025C58.9795 0.915043 58.6062 0.915039 58.3266 0.915039Z" fill="#B5C7C8"/>
</svg>
