<svg width="143" height="26" viewBox="0 0 143 26" fill="none" xmlns="http://www.w3.org/2000/svg">
<path fill-rule="evenodd" clip-rule="evenodd" d="M22.0623 2.49494C21.9704 3.09959 21.2245 3.68874 20.6362 4.2767C19.6481 5.26299 18.6015 6.06084 16.7851 5.48838C16.4534 9.88435 16.7362 14.8945 16.6419 19.5278C17.8699 19.467 18.8151 18.7753 19.9225 18.5296C19.8509 19.1772 19.1182 19.5564 18.6396 19.8844C17.0703 20.9589 14.9187 21.8677 12.4352 22.0227C6.82275 22.371 1.1637 19.7246 1.4525 13.969C1.59453 11.1354 3.1686 9.61243 4.80473 8.12525C6.15921 7.07098 8.10563 5.78057 10.2955 5.20335C10.1415 5.75911 9.52337 5.98691 9.08302 6.41385C6.89912 8.53431 4.47655 12.452 6.37283 16.6059C6.64851 16.9518 6.81917 17.4336 7.15809 17.8176C8.76438 19.6387 12.125 20.2636 15.7863 19.7413C15.7863 14.9899 15.7863 10.2385 15.7863 5.48838C15.47 5.04474 14.8888 4.86465 14.3602 4.6321C14.2313 6.35064 14.2886 8.3268 14.2886 10.334C14.2886 12.2863 14.5798 14.4473 14.2886 16.0358C13.927 18.0096 11.4543 18.551 9.15463 18.4592C9.49474 17.8486 10.5044 17.9082 10.7943 17.2475C10.7943 15.9535 10.7943 14.3841 10.7943 12.7573C10.7943 10.6118 11.2681 8.09901 9.86708 7.55517C10.3576 6.88255 11.0784 6.5522 11.7932 6.05845C12.4854 5.58022 13.2539 5.12941 13.9329 4.56173C13.2646 4.01791 12.2622 3.74479 11.2932 3.56351C8.11996 2.9684 4.65915 3.66131 2.23657 4.6321C1.70074 4.84796 1.34392 5.19978 0.88208 5.27372C0.896362 4.551 1.61721 4.08826 2.09455 3.63507C3.52185 2.28027 5.32863 0.923087 7.79894 0.570071C7.96005 0.608249 7.71308 0.292189 7.87053 0.498531C10.8433 0.141947 12.9365 0.966038 15.2158 1.78178C16.8543 2.36855 18.5836 3.1032 20.4226 2.92192C21.1768 2.84797 21.4107 2.5176 22.0623 2.49494ZM113.846 13.399C113.846 14.3817 113.846 15.6566 113.846 16.8194C113.846 17.9643 113.572 19.3119 114.486 19.6709C115.12 19.7091 115.68 19.0579 116.056 18.6011C116.008 16.5582 116.151 14.3256 115.984 12.4008C115.287 12.749 114.605 13.1127 113.846 13.399ZM120.264 19.4562C120.77 19.3203 121.073 18.6035 121.548 18.6727C121.944 19.1664 121.061 19.6888 120.619 20.0978C120.242 20.4485 119.592 21.269 119.051 21.3095C117.966 21.3919 117.23 20.0907 116.555 19.4562C115.58 20.1205 114.943 21.1354 113.631 21.3095C112.128 21.5099 110.771 20.5952 110.422 19.3143C110.012 17.8116 110.577 15.6995 110.35 13.8259C112.227 12.9696 114.161 12.1694 116.056 11.3322C116.393 8.08112 113.304 9.14373 112.133 10.4771C111.755 10.9088 111.493 11.9225 110.779 11.5457C110.921 10.9231 111.396 10.3483 111.777 9.83545C112.161 9.31905 112.563 8.62257 112.99 8.26717C114.533 6.98035 117.698 7.00062 118.766 8.41028C119.834 9.81994 119.55 12.3125 119.55 14.8957C119.55 16.7144 119.178 18.8146 120.264 19.4562ZM105.715 8.69531C106.379 8.28506 106.512 7.34647 107.284 7.34052C108.113 7.33516 108.481 8.88018 109.281 8.90879C110.216 8.94224 109.973 7.41087 110.992 7.84022C110.489 8.6333 109.774 11.2606 108.354 11.2606C107.468 11.2606 107.011 9.73169 106.285 9.907C105.692 10.0489 105.929 12.7037 105.929 13.969C105.929 15.9977 105.46 19.2272 106.714 19.5278C107.429 19.6995 107.661 19.2404 108.212 19.1008C108.596 19.5993 107.894 20.0001 107.426 20.3125C106.844 20.7013 106.213 21.1092 105.43 21.1676C104.17 21.2606 102.992 20.6131 102.363 19.8844C102.363 16.4389 102.363 12.9947 102.363 9.55041C101.957 9.64464 101.549 10.3518 101.008 10.5486C101.13 10.4998 100.854 10.0704 100.866 9.97737C100.871 9.92964 103.253 7.40611 103.718 7.34052C104.637 7.21171 105.083 8.17296 105.715 8.69531ZM95.7312 9.907C95.36 9.52536 94.533 8.94934 93.9483 9.19383C93.1869 9.51226 93.5198 12.359 93.5198 13.684C93.5198 15.6852 93.4649 17.3048 93.5914 18.5296C94.0186 18.9112 95.0557 18.6822 95.8028 18.7442C95.755 15.8224 95.897 12.7096 95.7312 9.907ZM100.509 9.907C100.043 10.0823 99.6956 10.3769 99.297 10.619C99.6049 13.4872 98.8829 16.1503 99.297 18.6727C99.4963 19.888 100.723 20.5785 100.795 21.6661C100.878 22.9458 99.8627 23.5874 99.297 24.0895C98.5893 24.7168 97.958 25.3716 97.0857 25.7282C94.6917 26.7073 92.7023 24.7144 90.596 24.8731C89.9337 24.9232 89.4146 25.3573 88.9563 25.3716C89.0745 24.1825 90.3753 22.9339 91.5233 22.5212C91.8932 22.3877 92.3885 22.3078 92.8074 22.3078C94.7466 22.3078 96.4376 24.9506 97.7277 23.0198C97.0176 21.9249 96.267 20.8695 95.8732 19.4562C94.6702 20.006 94.1583 21.1187 92.9494 21.3095C91.6092 21.5218 90.2416 20.402 90.0972 19.3143C89.8895 17.7472 90.0972 16.2481 90.0972 14.5391C90.0972 12.8468 89.7726 10.4556 90.2392 9.26538C90.7738 7.89985 92.9279 7.08053 94.5903 7.76866C95.1655 8.00717 95.7515 8.69174 96.23 8.69531C97.0952 8.69977 97.5559 7.11749 98.5834 7.34052C99.4331 7.52536 99.8985 9.35364 100.509 9.907ZM35.0415 15.7508C36.1383 14.9219 37.2982 13.5397 38.3222 12.4008C37.3603 11.3191 36.2051 10.4306 35.0415 9.55041C35.0415 11.6172 35.0415 13.684 35.0415 15.7508ZM41.2459 11.3322C39.7292 12.4067 37.9474 14.1229 36.4676 15.7508C35.8363 16.4461 34.4305 17.6912 35.6836 18.6011C36.9677 19.5349 39.2745 18.0239 40.2483 17.8891C40.3724 18.3578 39.6373 18.7967 39.2494 19.2428C38.4355 20.179 37.7959 21.4705 35.8256 21.3095C34.3315 21.1879 31.8373 19.8892 31.5473 18.6011C31.0461 16.3769 32.2908 12.0275 31.0485 10.5486C32.8218 9.27969 35.1669 8.20277 36.9677 7.19859C38.537 8.43294 40.0335 9.74004 41.2459 11.3322ZM83.1075 15.7508C84.1995 14.8933 85.406 13.5337 86.3882 12.3292C85.3332 11.3894 84.3498 10.3769 83.1075 9.62198C83.1075 11.6649 83.1075 13.7079 83.1075 15.7508ZM89.3131 11.3322C87.8632 12.4616 85.937 14.0621 84.4632 15.6792C84.0431 16.1408 83.2961 16.941 83.2507 17.461C83.03 19.9774 87.4467 18.3077 88.3143 17.8891C88.2905 18.4103 87.7247 18.8373 87.3154 19.3143C86.6459 20.0955 85.9275 21.1426 84.6768 21.3095C82.3987 21.6137 80.6229 20.0728 79.6133 18.6727C79.2672 16.4365 80.1086 13.207 79.5417 11.2606C79.4522 10.9517 79.2791 10.7812 79.1145 10.5486C80.8652 9.20933 83.1386 8.39239 84.962 7.12703C86.5337 8.4079 88.0851 9.70784 89.3131 11.3322ZM127.751 11.5457C127.751 10.6226 127.966 9.14732 127.395 8.98035C126.787 8.80146 126.21 9.5862 125.683 9.69234C125.683 13.0901 125.683 16.4866 125.683 19.8844C126.377 19.8641 127.071 20.1968 127.68 20.0263C127.807 17.8212 127.752 14.2994 127.751 11.5457ZM125.399 8.98035C126.425 8.6178 127.108 7.62197 128.251 7.55517C129.413 7.48604 131.003 8.44248 131.246 9.62198C131.526 10.9756 131.246 13.0233 131.246 14.8241C131.246 16.6751 131.246 18.4652 131.246 19.9559C130.403 21.6292 127.708 20.9458 125.826 20.6679C125.506 21.5123 125.77 22.9398 125.683 24.018C124.913 24.9816 123.593 25.3978 122.117 25.6578C122.117 22.0907 122.117 17.5922 122.117 13.4705C122.117 12.458 122.368 10.1718 121.69 9.907C121.34 9.76986 120.801 10.3781 120.549 10.0489C120.677 9.52895 121.35 9.08887 121.833 8.62376C122.368 8.10854 122.932 7.58023 123.544 7.19859C124.344 7.61004 124.806 8.36139 125.399 8.98035ZM67.2057 15.7508C68.2761 14.873 69.5614 13.5922 70.4851 12.3292C69.4719 11.3238 68.3847 10.39 67.2057 9.55041C67.2057 11.6172 67.2057 13.684 67.2057 15.7508ZM66.0636 2.49494C65.9765 3.00657 65.3846 3.65177 64.8511 4.20514C63.9215 5.16996 62.6064 6.06084 60.7864 5.48838C60.4559 9.9082 60.7375 14.9422 60.6444 19.5993C61.7662 19.3429 62.7591 18.9565 63.7102 18.5296C63.4214 16.3304 64.0981 13.4371 63.7102 11.4037C63.6374 11.0209 63.3582 10.8134 63.283 10.4771C65.0695 9.22126 67.2713 8.38047 69.059 7.12703C70.6892 8.37212 72.1857 9.75196 73.4805 11.3322C71.9673 12.4115 70.108 14.0609 68.6306 15.6792C67.9802 16.3924 66.8202 17.4968 67.7045 18.4592C68.8132 19.6661 71.4744 18.0168 72.4816 17.8891C72.4923 18.2254 72.1439 18.5558 71.9124 18.8158C71.3014 19.498 70.3467 20.8182 69.4158 21.1676C67.1579 22.0144 64.9168 20.21 63.9251 18.8862C59.1312 24.0096 45.4538 22.9947 45.4538 14.3256C45.4538 11.5504 47.0112 9.71023 48.5924 8.33873C50.2417 6.90521 52.2728 5.78416 54.3684 5.20335C53.9519 5.75672 53.4006 6.24093 52.8707 6.77045C51.2585 8.38166 49.5078 10.6095 49.7321 13.969C50.0543 18.7693 54.1178 20.5558 59.7876 19.7413C59.7876 14.9661 59.7876 10.192 59.7876 5.41683C59.4057 5.01492 58.7839 4.85273 58.2899 4.56173C58.2907 7.21171 58.2899 10.4365 58.2899 13.3274C58.2899 14.3197 58.4486 15.4109 58.2899 16.1777C57.9044 18.0478 55.3792 18.5427 53.1559 18.4592C53.4901 17.8665 54.4615 17.9118 54.7957 17.3191C54.7957 16.0108 54.7957 14.4807 54.7957 12.9005C54.7957 11.3787 55.0689 9.60051 54.7957 8.48184C54.6835 8.0203 54.2348 7.85692 53.94 7.55517C54.4221 6.86108 55.2384 6.46633 55.9365 5.98691C56.6406 5.50509 57.3769 5.03163 58.0763 4.56173C54.4842 2.3566 47.9313 3.64103 44.8834 5.20335C45.0075 4.48421 45.7319 4.04652 46.2379 3.56351C48.0948 1.79487 50.4123 0.171731 54.2252 0.428151C57.8996 0.673822 60.8616 3.23674 64.4239 2.92189C65.0242 2.86944 65.5695 2.5343 66.0636 2.49494ZM23.7032 1.85331C23.7497 1.85331 23.7975 1.85331 23.8452 1.85331C24.0111 4.06322 23.8691 6.57963 23.9168 8.90879C24.7617 8.77522 25.2928 7.746 26.3417 7.6971C27.7619 7.63029 29.1557 8.80027 29.9076 9.69234C29.6522 13.1163 30.2477 17.7055 29.9076 21.0245C29.7226 22.8289 28.4015 23.758 26.8406 24.303C26.0219 24.5892 25.0398 24.9136 24.1304 24.7311C24.3643 24.3638 25.1209 24.0883 25.4861 23.6614C26.7976 22.1253 26.4121 18.6882 26.4121 15.5373C26.4121 13.9881 26.7845 11.1127 26.2701 10.192C25.9336 9.58978 24.8261 9.53729 23.9884 9.55041C23.8607 10.7466 23.9168 12.2767 23.9168 13.8975C23.9168 15.4109 23.622 17.2821 23.9168 18.3161C24.0564 18.8063 24.7295 19.0925 25.1293 19.2428C24.4371 20.0955 23.3702 20.5737 22.4907 21.238C21.6434 20.7061 20.9918 19.9798 20.4226 19.1712C20.4226 16.4664 20.4226 12.9768 20.4226 9.97737C20.4226 8.43294 20.7436 6.66669 19.6373 6.27193C20.8235 4.62971 22.3451 3.32261 23.7032 1.85331ZM136.523 8.90879C137.319 8.75734 137.876 7.77104 138.877 7.6971C140.285 7.59334 141.697 8.77283 142.443 9.62198C142.113 13.3584 142.882 18.0394 142.443 21.4527C142.154 23.6924 139.127 24.662 136.737 24.8015C136.784 24.3221 137.513 24.2338 137.878 23.876C139.577 22.2135 138.948 16.8623 138.948 13.1843C138.948 12.1789 139.117 10.9982 138.948 10.4055C138.701 9.53849 137.467 9.57427 136.595 9.55041C136.467 10.7585 136.523 12.3328 136.523 13.969C136.523 15.492 136.212 17.3537 136.523 18.3876C136.665 18.8575 137.36 19.0889 137.736 19.2428C137.023 20.0752 135.959 20.5558 135.097 21.238C134.516 20.7669 133.184 19.9929 132.958 19.1008C132.777 18.3912 132.958 17.1449 132.958 16.0358C132.958 14.0382 132.958 12.1157 132.958 10.0489C132.958 8.41864 133.322 6.68577 132.244 6.27193C133.405 4.60467 134.93 3.30233 136.31 1.85331C136.367 1.86642 136.38 1.92485 136.452 1.92485C136.618 4.11089 136.477 6.60348 136.523 8.90879ZM77.6168 0C77.7457 4.10616 77.6884 9.14493 77.6884 13.684C77.6884 15.2022 77.3769 16.9816 77.6884 18.2445C77.8423 18.873 78.5082 19.0281 79.0428 19.3859C78.2254 20.1587 77.3196 20.8456 76.4043 21.523C75.5236 20.978 74.9054 20.1718 74.1941 19.4562C74.1941 14.6572 74.1941 9.85931 74.1941 5.06024C74.064 4.6476 73.6201 5.20932 73.4805 4.9887C73.4113 4.4544 73.9638 4.0668 74.2645 3.70664C75.2682 2.5033 76.4043 1.20812 77.4735 8.92018e-06C77.5213 8.92018e-06 77.569 0 77.6168 0Z" fill="#B5C7C8"/>
</svg>
