<svg width="132" height="35" viewBox="0 0 132 35" fill="none" xmlns="http://www.w3.org/2000/svg">
<path d="M31.655 13.2397H45.3206V15.804H39.9473V30.2188H36.9926V15.804H31.6431L31.655 13.2397ZM44.7368 17.9248H47.2626V20.2974H47.3103C47.3937 19.9619 47.5486 19.6383 47.7749 19.3268C48.0013 19.0152 48.2753 18.7157 48.597 18.4641C48.9187 18.2004 49.2761 17.9967 49.6693 17.829C50.0625 17.6732 50.4676 17.5893 50.8726 17.5893C51.1824 17.5893 51.4088 17.6013 51.5279 17.6133C51.6471 17.6253 51.7662 17.6493 51.8973 17.6612V20.2734C51.7066 20.2374 51.516 20.2135 51.3135 20.1895C51.1109 20.1656 50.9203 20.1536 50.7297 20.1536C50.2769 20.1536 49.848 20.2494 49.4429 20.4292C49.0378 20.6089 48.6923 20.8845 48.3945 21.232C48.0966 21.5915 47.8583 22.0228 47.6796 22.55C47.5009 23.0773 47.4175 23.6764 47.4175 24.3594V30.2068H44.7249L44.7368 17.9248ZM64.2762 30.2188H61.6312V28.5053H61.5835C61.2499 29.1284 60.7615 29.6196 60.1062 29.9911C59.4509 30.3625 58.7837 30.5543 58.1046 30.5543C56.4962 30.5543 55.3286 30.1589 54.6137 29.356C53.8989 28.5532 53.5414 27.343 53.5414 25.7254V17.9248H56.234V25.4618C56.234 26.5402 56.4366 27.307 56.8536 27.7504C57.2587 28.1937 57.8425 28.4214 58.5812 28.4214C59.153 28.4214 59.6177 28.3375 59.9989 28.1578C60.3802 27.9781 60.69 27.7504 60.9163 27.4508C61.1546 27.1633 61.3214 26.8038 61.4287 26.3964C61.5359 25.989 61.5835 25.5456 61.5835 25.0663V17.9368H64.2762V30.2188ZM68.8631 26.2766C68.9465 27.0674 69.2444 27.6186 69.7567 27.9421C70.2809 28.2537 70.9005 28.4214 71.6272 28.4214C71.8774 28.4214 72.1634 28.3974 72.4851 28.3615C72.8068 28.3255 73.1165 28.2417 73.3905 28.1338C73.6765 28.026 73.9029 27.8582 74.0935 27.6426C74.2722 27.4269 74.3556 27.1513 74.3437 26.8038C74.3318 26.4563 74.2007 26.1687 73.9624 25.953C73.7242 25.7254 73.4263 25.5576 73.057 25.4138C72.6876 25.282 72.2706 25.1622 71.794 25.0663C71.3175 24.9705 70.8409 24.8626 70.3524 24.7548C69.852 24.647 69.3635 24.5032 68.8989 24.3474C68.4342 24.1916 68.0172 23.9759 67.6479 23.7004C67.2786 23.4367 66.9807 23.0893 66.7662 22.6699C66.5399 22.2505 66.4326 21.7352 66.4326 21.1122C66.4326 20.4411 66.5994 19.89 66.9211 19.4346C67.2428 18.9793 67.6598 18.6198 68.1483 18.3442C68.6487 18.0686 69.1967 17.8769 69.8044 17.7571C70.412 17.6493 70.9958 17.5893 71.5438 17.5893C72.1753 17.5893 72.7829 17.6612 73.3548 17.793C73.9267 17.9249 74.4509 18.1405 74.9156 18.4521C75.3802 18.7516 75.7615 19.1471 76.0713 19.6263C76.381 20.1056 76.5717 20.6928 76.655 21.3758H73.8433C73.7122 20.7287 73.4263 20.2854 72.9616 20.0697C72.497 19.842 71.9608 19.7342 71.3651 19.7342C71.1745 19.7342 70.9481 19.7462 70.686 19.7821C70.4239 19.8181 70.1856 19.878 69.9473 19.9619C69.721 20.0457 69.5303 20.1775 69.3635 20.3453C69.2087 20.513 69.1253 20.7287 69.1253 21.0043C69.1253 21.3398 69.2444 21.6034 69.4708 21.8071C69.6971 22.0108 69.995 22.1786 70.3643 22.3224C70.7337 22.4542 71.1507 22.574 71.6272 22.6699C72.1038 22.7657 72.5923 22.8736 73.0927 22.9814C73.5812 23.0893 74.0578 23.233 74.5343 23.3888C75.0109 23.5446 75.4279 23.7603 75.7972 24.0359C76.1666 24.3115 76.4644 24.647 76.6908 25.0544C76.9172 25.4618 77.0363 25.977 77.0363 26.5761C77.0363 27.307 76.8695 27.9181 76.5359 28.4334C76.2023 28.9366 75.7734 29.356 75.2492 29.6676C74.7249 29.9791 74.1292 30.2188 73.4859 30.3625C72.8425 30.5063 72.1991 30.5782 71.5677 30.5782C70.7932 30.5782 70.0784 30.4944 69.4231 30.3146C68.7678 30.1349 68.1959 29.8713 67.7194 29.5238C67.2428 29.1643 66.8615 28.721 66.5875 28.1937C66.3135 27.6665 66.1705 27.0315 66.1467 26.3005H68.8631V26.2766ZM77.7512 17.9248H79.7885V14.2343H82.4811V17.9248H84.9116V19.9499H82.4811V26.5162C82.4811 26.8038 82.493 27.0434 82.5169 27.2591C82.5407 27.4628 82.6003 27.6425 82.6837 27.7863C82.7671 27.9301 82.8981 28.038 83.0768 28.1099C83.2555 28.1818 83.4819 28.2177 83.7917 28.2177C83.9823 28.2177 84.1729 28.2177 84.3636 28.2057C84.5542 28.1937 84.7448 28.1698 84.9354 28.1219V30.2188C84.6376 30.2547 84.3397 30.2787 84.0657 30.3146C83.7798 30.3506 83.4938 30.3625 83.196 30.3625C82.4811 30.3625 81.9092 30.2907 81.4803 30.1589C81.0514 30.027 80.7059 29.8233 80.4676 29.5597C80.2174 29.2961 80.0625 28.9726 79.9672 28.5772C79.8838 28.1818 79.8242 27.7264 79.8123 27.2232V19.9738H77.775V17.9248H77.7512ZM86.8179 17.9248H89.3675V19.5904H89.4152C89.7964 18.8715 90.3207 18.3682 90.9998 18.0567C91.6789 17.7451 92.4057 17.5893 93.2039 17.5893C94.169 17.5893 95.003 17.7571 95.7178 18.1046C96.4327 18.4401 97.0284 18.9074 97.505 19.5065C97.9815 20.1056 98.3271 20.8006 98.5653 21.5915C98.8036 22.3823 98.9228 23.233 98.9228 24.1317C98.9228 24.9585 98.8155 25.7613 98.6011 26.5282C98.3866 27.307 98.0649 27.99 97.636 28.5892C97.2071 29.1883 96.6591 29.6556 95.9919 30.0151C95.3247 30.3745 94.5502 30.5543 93.6448 30.5543C93.2516 30.5543 92.8584 30.5183 92.4652 30.4464C92.0721 30.3745 91.6908 30.2547 91.3334 30.0989C90.976 29.9432 90.6304 29.7395 90.3326 29.4878C90.0228 29.2362 89.7726 28.9486 89.5582 28.6251H89.5105V34.7601H86.8179V17.9248ZM96.2301 24.0838C96.2301 23.5326 96.1587 22.9934 96.0157 22.4662C95.8727 21.9389 95.6583 21.4836 95.3723 21.0762C95.0864 20.6688 94.7289 20.3453 94.312 20.1056C93.883 19.866 93.3946 19.7342 92.8465 19.7342C91.7147 19.7342 90.8568 20.1296 90.2849 20.9204C89.7131 21.7113 89.4271 22.7657 89.4271 24.0838C89.4271 24.7069 89.4986 25.282 89.6535 25.8092C89.8084 26.3365 90.0228 26.7918 90.3326 27.1752C90.6304 27.5587 90.9879 27.8582 91.4049 28.0739C91.8219 28.3016 92.3104 28.4094 92.8584 28.4094C93.478 28.4094 93.9903 28.2776 94.4192 28.026C94.8481 27.7744 95.1936 27.4389 95.4676 27.0434C95.7417 26.636 95.9442 26.1807 96.0633 25.6655C96.1706 25.1502 96.2301 24.623 96.2301 24.0838ZM100.984 13.2397H103.677V15.804H100.984V13.2397ZM100.984 17.9248H103.677V30.2188H100.984V17.9248ZM106.083 13.2397H108.776V30.2188H106.083V13.2397ZM117.032 30.5543C116.055 30.5543 115.186 30.3865 114.423 30.063C113.661 29.7395 113.017 29.2841 112.481 28.721C111.957 28.1458 111.552 27.4628 111.278 26.672C111.004 25.8811 110.861 25.0064 110.861 24.0598C110.861 23.1252 111.004 22.2625 111.278 21.4716C111.552 20.6808 111.957 19.9978 112.481 19.4226C113.005 18.8475 113.661 18.4041 114.423 18.0806C115.186 17.7571 116.055 17.5893 117.032 17.5893C118.009 17.5893 118.879 17.7571 119.642 18.0806C120.404 18.4041 121.047 18.8595 121.584 19.4226C122.108 19.9978 122.513 20.6808 122.787 21.4716C123.061 22.2625 123.204 23.1252 123.204 24.0598C123.204 25.0064 123.061 25.8811 122.787 26.672C122.513 27.4628 122.108 28.1458 121.584 28.721C121.059 29.2961 120.404 29.7395 119.642 30.063C118.879 30.3865 118.009 30.5543 117.032 30.5543ZM117.032 28.4094C117.628 28.4094 118.152 28.2776 118.593 28.026C119.034 27.7744 119.391 27.4388 119.677 27.0314C119.963 26.624 120.166 26.1567 120.309 25.6415C120.44 25.1263 120.511 24.599 120.511 24.0598C120.511 23.5326 120.44 23.0174 120.309 22.4901C120.178 21.9629 119.963 21.5076 119.677 21.1002C119.391 20.6928 119.034 20.3693 118.593 20.1176C118.152 19.866 117.628 19.7342 117.032 19.7342C116.437 19.7342 115.912 19.866 115.472 20.1176C115.031 20.3693 114.673 20.7048 114.387 21.1002C114.101 21.5076 113.899 21.9629 113.756 22.4901C113.625 23.0174 113.553 23.5326 113.553 24.0598C113.553 24.599 113.625 25.1263 113.756 25.6415C113.887 26.1567 114.101 26.624 114.387 27.0314C114.673 27.4388 115.031 27.7744 115.472 28.026C115.912 28.2896 116.437 28.4094 117.032 28.4094ZM123.99 17.9248H126.028V14.2343H128.72V17.9248H131.151V19.9499H128.72V26.5162C128.72 26.8038 128.732 27.0434 128.756 27.2591C128.78 27.4628 128.839 27.6425 128.923 27.7863C129.006 27.9301 129.137 28.038 129.316 28.1099C129.495 28.1818 129.721 28.2177 130.031 28.2177C130.221 28.2177 130.412 28.2177 130.603 28.2057C130.793 28.1937 130.984 28.1698 131.175 28.1219V30.2188C130.877 30.2547 130.579 30.2787 130.305 30.3146C130.019 30.3506 129.733 30.3625 129.435 30.3625C128.72 30.3625 128.148 30.2907 127.719 30.1589C127.291 30.027 126.945 29.8233 126.707 29.5597C126.457 29.2961 126.302 28.9726 126.206 28.5772C126.123 28.1818 126.063 27.7264 126.051 27.2232V19.9738H124.014V17.9248H123.99Z" fill="#B5C7C8"/>
<path d="M28.2805 10.8298H17.4945L14.163 0.547852L10.821 10.8298L0.0350342 10.8194L8.76998 17.1804L5.42801 27.4519L14.163 21.1013L22.8875 27.4519L19.5559 17.1804L28.2805 10.8298Z" fill="#B5C7C8"/>
<path d="M20.0996 18.9313L19.3745 16.6855L14.1578 20.4721L20.0996 18.9313Z" fill="#B5C7C8"/>
</svg>
